<?xml version="1.0" encoding="UTF-8" standalone="no"?><!-- Generator: Gravit.io --><svg xmlns="http://www.w3.org/2000/svg" xmlns:xlink="http://www.w3.org/1999/xlink" style="isolation:isolate" viewBox="0 0 612 612" width="612pt" height="612pt"><defs><clipPath id="_clipPath_lhqsOAgfZJd6AZzTF5K0NXKDFoYjOOwQ"><rect width="612" height="612"/></clipPath></defs><g clip-path="url(#_clipPath_lhqsOAgfZJd6AZzTF5K0NXKDFoYjOOwQ)"><g><g><circle vector-effect="non-scaling-stroke" cx="305.99999999999994" cy="306.00000000000006" r="301" fill="rgb(44,160,28)"/><path d=" M 88.58 305.992 C 88.58 370.639 140.988 423.046 205.636 423.046 L 222.358 423.046 L 222.358 379.569 L 205.636 379.569 C 165.065 379.569 132.058 346.562 132.058 305.992 C 132.058 265.42 165.065 232.414 205.636 232.414 L 245.82 232.414 C 245.82 232.414 245.82 455.533 245.82 459.835 C 245.82 483.847 265.286 503.313 289.298 503.313 L 289.298 188.936 C 289.298 188.936 244.304 188.936 205.636 188.936 C 140.988 188.936 88.58 241.345 88.58 305.992 Z  M 406.363 188.954 L 389.641 188.954 L 389.641 232.432 L 406.363 232.432 C 446.934 232.432 479.941 265.439 479.941 306.009 C 479.941 346.58 446.934 379.586 406.363 379.586 L 366.179 379.586 C 366.179 379.586 366.179 156.467 366.179 152.165 C 366.179 128.152 346.713 108.687 322.701 108.687 L 322.701 423.064 C 322.701 423.064 367.694 423.064 406.363 423.064 C 471.011 423.064 523.418 370.655 523.418 306.009 C 523.418 241.361 471.011 188.954 406.363 188.954 Z " fill="rgb(255,255,255)"/></g></g></g></svg>