<?xml version="1.0" encoding="UTF-8" standalone="no"?><!-- Generator: Gravit.io --><svg xmlns="http://www.w3.org/2000/svg" xmlns:xlink="http://www.w3.org/1999/xlink" style="isolation:isolate" viewBox="0 0 586 559" width="586pt" height="559pt"><defs><clipPath id="_clipPath_EXAOiRY09iucjnoRK0nGCMCNvJnU9gA6"><rect width="586" height="559"/></clipPath></defs><g clip-path="url(#_clipPath_EXAOiRY09iucjnoRK0nGCMCNvJnU9gA6)"><g><path d=" M 584.011 318.194 L 551.237 217.463 L 486.382 17.664 C 484.851 13.092 480.57 10.011 475.749 10.011 C 470.928 10.011 466.647 13.092 465.116 17.664 L 400.261 217.341 L 184.777 217.341 L 119.921 17.664 C 118.4 13.088 114.119 10 109.297 10 C 104.475 10 100.194 13.088 98.673 17.664 L 33.922 217.341 L 1.148 318.194 C -1.839 327.38 1.42 337.444 9.224 343.135 L 292.545 549 L 575.813 343.135 C 583.653 337.47 586.961 327.406 584.011 318.194" fill="rgb(252,109,38)"/></g><g><path d=" M 292.545 548.844 L 292.545 548.844 L 400.278 217.324 L 184.863 217.324 L 292.545 548.844 Z " fill="rgb(226,67,41)"/></g><g><path d=" M 292.545 548.844 L 184.777 217.324 L 33.991 217.324 L 292.545 548.844 Z " fill="rgb(252,109,38)"/></g><g><path d=" M 33.87 217.428 L 33.87 217.428 L 1.096 318.16 C -1.891 327.345 1.368 337.409 9.172 343.1 L 292.545 549 L 33.87 217.428 Z " fill="rgb(252,163,38)"/></g><g><path d=" M 33.922 217.428 L 184.898 217.428 L 119.921 17.768 C 118.39 13.196 114.109 10.115 109.289 10.115 C 104.468 10.115 100.187 13.196 98.656 17.768 L 33.922 217.428 Z " fill="rgb(226,67,41)"/></g><g><path d=" M 292.545 548.844 L 400.278 217.324 L 551.306 217.324 L 292.545 548.844 Z " fill="rgb(252,109,38)"/></g><g><path d=" M 551.202 217.428 L 551.202 217.428 L 583.976 318.16 C 586.981 327.345 583.718 337.419 575.9 343.1 L 292.545 548.844 L 551.133 217.428 L 551.202 217.428 Z " fill="rgb(252,163,38)"/></g><g><path d=" M 551.272 217.428 L 400.313 217.428 L 465.168 17.768 C 466.69 13.192 470.97 10.104 475.792 10.104 C 480.615 10.104 484.895 13.192 486.417 17.768 L 551.272 217.428 Z " fill="rgb(226,67,41)"/></g></g></svg>